<?xml version="1.0" encoding="UTF-8"?>
<svg width="200px" height="174px" viewBox="0 0 200 174" version="1.1" xmlns="http://www.w3.org/2000/svg" xmlns:xlink="http://www.w3.org/1999/xlink">
    <!-- Generator: Sketch 40.2 (33826) - http://www.bohemiancoding.com/sketch -->
    <title>icons/lock</title>
    <desc>Created with Sketch.</desc>
    <defs>
        <polygon id="path-1" points="150 173.60254 50 173.60254 0 87 50 0.397459622 150 0.397459622 200 87"></polygon>
        <linearGradient x1="100%" y1="50%" x2="0%" y2="50%" id="linearGradient-3">
            <stop stop-color="#85D0ED" offset="0%"></stop>
            <stop stop-color="#44A1DA" offset="40.4061439%"></stop>
            <stop stop-color="#006FC6" offset="100%"></stop>
        </linearGradient>
        <path d="M150,173.60254 L50,173.60254 L0,87 L50,0.397459622 L150,0.397459622 L200,87 L150,173.60254 Z M100,30 C79.6818805,30 63.2105975,46.4674163 63.2105975,66.7810531 C63.2105975,70.1873265 63.6757736,73.4842531 64.5425975,76.6143673 C64.8895597,77.867902 65.2993522,79.0951469 65.7719748,80.2909837 L66.8875597,82.8255061 L100,144 L133.155956,82.7387265 L134.161472,80.4545388 C134.661553,79.2068204 135.094849,77.9253673 135.457635,76.6146 C136.324226,73.4842531 136.789635,70.1873265 136.789635,66.7812857 C136.789403,46.4674163 120.318119,30 100,30 Z M100,84.5038653 C90.0409497,84.5038653 81.940044,76.4047469 81.940044,66.4478939 C81.940044,56.4926694 90.0409497,48.393551 100,48.393551 C109.95905,48.393551 118.059956,56.4926694 118.059956,66.4478939 C118.059956,76.4047469 109.95905,84.5038653 100,84.5038653 Z" id="path-4"></path>
    </defs>
    <g id="Symbols" stroke="none" stroke-width="1" fill="none" fill-rule="evenodd">
        <g id="Icons" transform="translate(-284.000000, -764.000000)">
            <g id="icons/lock" transform="translate(284.000000, 764.000000)">
                <g id="icons-/-lock">
                    <mask id="mask-2" fill="white">
                        <use xlink:href="#path-1"></use>
                    </mask>
                    <g id="Polygon"></g>
                    <mask id="mask-5" fill="white">
                        <use xlink:href="#path-4"></use>
                    </mask>
                    <use id="Combined-Shape" fill="url(#linearGradient-3)" xlink:href="#path-4"></use>
                </g>
            </g>
        </g>
    </g>
</svg>