<?xml version="1.0" encoding="UTF-8"?>
<svg width="200px" height="200px" viewBox="0 0 200 200" version="1.1" xmlns="http://www.w3.org/2000/svg" xmlns:xlink="http://www.w3.org/1999/xlink">
    <!-- Generator: Sketch 40.2 (33826) - http://www.bohemiancoding.com/sketch -->
    <title>icons/message</title>
    <desc>Created with Sketch.</desc>
    <defs>
        <polygon id="path-1" points="200 87 150 173.60254 50 173.60254 0 87 50 0.397459622 150 0.397459622"></polygon>
        <filter x="-50%" y="-50%" width="200%" height="200%" filterUnits="objectBoundingBox" id="filter-3">
            <feOffset dx="1.5" dy="2" in="SourceAlpha" result="shadowOffsetOuter1"></feOffset>
            <feGaussianBlur stdDeviation="5" in="shadowOffsetOuter1" result="shadowBlurOuter1"></feGaussianBlur>
            <feColorMatrix values="0 0 0 0 0   0 0 0 0 0   0 0 0 0 0  0 0 0 0.292742301 0" type="matrix" in="shadowBlurOuter1"></feColorMatrix>
        </filter>
        <linearGradient x1="100%" y1="50%" x2="0%" y2="50%" id="linearGradient-4">
            <stop stop-color="#CCA5BF" offset="0%"></stop>
            <stop stop-color="#BA00D8" offset="100%"></stop>
        </linearGradient>
        <polygon id="path-5" points="150 173.60254 50 173.60254 0 87 50 0.397459622 150 0.397459622 200 87"></polygon>
    </defs>
    <g id="Symbols" stroke="none" stroke-width="1" fill="none" fill-rule="evenodd">
        <g id="icons/message">
            <g transform="translate(0.000000, 13.000000)">
                <mask id="mask-2" fill="white">
                    <use xlink:href="#path-1"></use>
                </mask>
                <g id="Polygon" fill-opacity="1" fill="black">
                    <use filter="url(#filter-3)" xlink:href="#path-1"></use>
                </g>
                <mask id="mask-6" fill="white">
                    <use xlink:href="#path-5"></use>
                </mask>
                <use id="Polygon" fill="url(#linearGradient-4)" xlink:href="#path-5"></use>
                <g id="mail" mask="url(#mask-6)">
                    <g transform="translate(43.000000, 46.000000)" id="Layer_1">
                        <g>
                            <g id="Group" transform="translate(0.000000, 0.675824)" fill="#FF9E24">
                                <path d="M50.0849707,40.3241758 L0.784785156,80.4336648 C0.299853516,79.9418901 0,79.2640385 0,78.5206319 L0,2.12794505 C0,1.38453846 0.299853516,0.706686813 0.784785156,0.214686813 L50.0849707,40.3241758 L50.0849707,40.3241758 Z" id="Shape"></path>
                                <path d="M115,2.12794505 L115,78.5206319 C115,79.2640385 114.700146,79.9418901 114.215215,80.4338901 L64.9150293,40.3241758 L114.215215,0.214686813 C114.700146,0.706461538 115,1.38431319 115,2.12794505 L115,2.12794505 Z" id="Shape"></path>
                            </g>
                            <path d="M112.274814,0.070510989 L2.72518555,0.070510989 C1.96757813,0.070510989 1.28094727,0.384769231 0.785009766,0.890510989 L57.5,60.1323571 L114.215215,0.890510989 C113.719277,0.384769231 113.032422,0.070510989 112.274814,0.070510989 L112.274814,0.070510989 Z" id="Shape" fill="#FFE1D6"></path>
                            <path d="M75.8155469,41 L114.215215,81.109489 C113.719277,81.6152308 113.032422,81.929489 112.275039,81.929489 L2.72518555,81.929489 C1.96757813,81.929489 1.28094727,81.6152308 0.785009766,81.109489 L39.1844531,41 L57.5,60.1323571 L75.8155469,41 L75.8155469,41 Z" id="Shape" fill="#FFB14D"></path>
                        </g>
                    </g>
                </g>
            </g>
        </g>
    </g>
</svg>