<?xml version="1.0" encoding="UTF-8"?>
<svg width="200px" height="174px" viewBox="0 0 200 174" version="1.1" xmlns="http://www.w3.org/2000/svg" xmlns:xlink="http://www.w3.org/1999/xlink">
    <!-- Generator: Sketch 40.2 (33826) - http://www.bohemiancoding.com/sketch -->
    <title>icons/tag</title>
    <desc>Created with Sketch.</desc>
    <defs>
        <linearGradient x1="0%" y1="46.2955337%" x2="100%" y2="46.6935515%" id="linearGradient-1">
            <stop stop-color="#3023AE" offset="0%"></stop>
            <stop stop-color="#3023AE" offset="2.79891152%"></stop>
            <stop stop-color="#653CBC" offset="47.4595075%"></stop>
            <stop stop-color="#C96DD8" offset="100%"></stop>
        </linearGradient>
        <polygon id="path-2" points="200 87 150 173.60254 50 173.60254 0 87 50 0.397459622 150 0.397459622"></polygon>
    </defs>
    <g id="Symbols" stroke="none" stroke-width="1" fill="none" fill-rule="evenodd">
        <g id="icons/tag" transform="translate(0.000000, -13.000000)">
            <g transform="translate(0.000000, 13.000000)">
                <mask id="mask-3" fill="white">
                    <use xlink:href="#path-2"></use>
                </mask>
                <use id="Polygon" fill="url(#linearGradient-1)" xlink:href="#path-2"></use>
                <g id="Chip" mask="url(#mask-3)">
                    <g transform="translate(46.393762, 38.072125)">
                        <path d="M0,5.66976127 L0,13.0828563 L5.54547288,13.0828563 C6.56583989,13.0828563 7.39396384,13.9112697 7.39396384,14.9361301 C7.39396384,15.9609905 6.56583989,16.7894039 5.54547288,16.7894039 L0,16.7894039 L0,18.6426776 L5.54547288,18.6426776 C6.56583989,18.6426776 7.39396384,19.471091 7.39396384,20.4959514 C7.39396384,21.5208118 6.56583989,22.3492252 5.54547288,22.3492252 L0,22.3492252 L0,24.202499 L5.54547288,24.202499 C6.56583989,24.202499 7.39396384,25.0309123 7.39396384,26.0557727 C7.39396384,27.0806331 6.56583989,27.9090465 5.54547288,27.9090465 L0,27.9090465 L0,64.9745218 L5.54547288,64.9745218 C6.56583989,64.9745218 7.39396384,65.8029352 7.39396384,66.8277956 C7.39396384,67.852656 6.56583989,68.6810694 5.54547288,68.6810694 L0,68.6810694 L0,70.5343432 L5.54547288,70.5343432 C6.56583989,70.5343432 7.39396384,71.3627565 7.39396384,72.3876169 C7.39396384,73.4124773 6.56583989,74.2408907 5.54547288,74.2408907 L0,74.2408907 L0,76.0941645 L5.54547288,76.0941645 C6.56583989,76.0941645 7.39396384,76.9225778 7.39396384,77.9474382 C7.39396384,78.9722986 6.56583989,79.800712 5.54547288,79.800712 L0,79.800712 L0,81.6539858 L5.54547288,81.6539858 C6.56583989,81.6539858 7.39396384,82.4823991 7.39396384,83.5072595 C7.39396384,84.5321199 6.56583989,85.3605333 5.54547288,85.3605333 L0,85.3605333 L0,87.2138071 L5.54547288,87.2138071 C6.56583989,87.2138071 7.39396384,88.0422204 7.39396384,89.0670808 C7.39396384,90.0919412 6.56583989,90.9203546 5.54547288,90.9203546 L0,90.9203546 L0,94.6269021 L107.212476,94.6269021 L107.212476,5.66976127 L0,5.66976127 L0,5.66976127 Z" id="Shape" fill="#5E5E60"></path>
                        <path d="M7.39396384,66.8277956 C7.39396384,65.8029352 6.56583989,64.9745218 5.54547288,64.9745218 L0,64.9745218 L0,68.6810694 L5.54547288,68.6810694 C6.56583989,68.6810694 7.39396384,67.852656 7.39396384,66.8277956 L7.39396384,66.8277956 Z" id="Shape" fill="#F3CC6D"></path>
                        <path d="M7.39396384,72.3876169 C7.39396384,71.3627565 6.56583989,70.5343432 5.54547288,70.5343432 L0,70.5343432 L0,74.2408907 L5.54547288,74.2408907 C6.56583989,74.2408907 7.39396384,73.4124773 7.39396384,72.3876169 L7.39396384,72.3876169 Z" id="Shape" fill="#F3CC6D"></path>
                        <path d="M7.39396384,77.9474382 C7.39396384,76.9225778 6.56583989,76.0941645 5.54547288,76.0941645 L0,76.0941645 L0,79.800712 L5.54547288,79.800712 C6.56583989,79.800712 7.39396384,78.9722986 7.39396384,77.9474382 L7.39396384,77.9474382 Z" id="Shape" fill="#F3CC6D"></path>
                        <path d="M7.39396384,83.5072595 C7.39396384,82.4823991 6.56583989,81.6539858 5.54547288,81.6539858 L0,81.6539858 L0,85.3605333 L5.54547288,85.3605333 C6.56583989,85.3605333 7.39396384,84.5321199 7.39396384,83.5072595 L7.39396384,83.5072595 Z" id="Shape" fill="#F3CC6D"></path>
                        <path d="M7.39396384,89.0670808 C7.39396384,88.0422204 6.56583989,87.2138071 5.54547288,87.2138071 L0,87.2138071 L0,90.9203546 L5.54547288,90.9203546 C6.56583989,90.9203546 7.39396384,90.0919412 7.39396384,89.0670808 L7.39396384,89.0670808 Z" id="Shape" fill="#F3CC6D"></path>
                        <path d="M7.39396384,14.9361301 C7.39396384,13.9112697 6.56583989,13.0828563 5.54547288,13.0828563 L0,13.0828563 L0,16.7894039 L5.54547288,16.7894039 C6.56583989,16.7894039 7.39396384,15.9609905 7.39396384,14.9361301 L7.39396384,14.9361301 Z" id="Shape" fill="#F3CC6D"></path>
                        <path d="M7.39396384,20.4959514 C7.39396384,19.471091 6.56583989,18.6426776 5.54547288,18.6426776 L0,18.6426776 L0,22.3492252 L5.54547288,22.3492252 C6.56583989,22.3492252 7.39396384,21.5208118 7.39396384,20.4959514 L7.39396384,20.4959514 Z" id="Shape" fill="#F3CC6D"></path>
                        <path d="M7.39396384,26.0557727 C7.39396384,25.0309123 6.56583989,24.202499 5.54547288,24.202499 L0,24.202499 L0,27.9090465 L5.54547288,27.9090465 C6.56583989,27.9090465 7.39396384,27.0806331 7.39396384,26.0557727 L7.39396384,26.0557727 Z" id="Shape" fill="#F3CC6D"></path>
                        <ellipse id="Oval" fill="#E7ECED" cx="49.9092559" cy="39.0286891" rx="1.84849096" ry="1.85327377"></ellipse>
                        <ellipse id="Oval" fill="#F3CC6D" cx="49.9092559" cy="44.5885104" rx="1.84849096" ry="1.85327377"></ellipse>
                        <ellipse id="Oval" fill="#F3CC6D" cx="49.9092559" cy="50.1483317" rx="1.84849096" ry="1.85327377"></ellipse>
                        <ellipse id="Oval" fill="#F3CC6D" cx="49.9092559" cy="22.3492252" rx="1.84849096" ry="1.85327377"></ellipse>
                        <ellipse id="Oval" fill="#E7ECED" cx="44.363783" cy="26.0557727" rx="1.84849096" ry="1.85327377"></ellipse>
                        <ellipse id="Oval" fill="#E7ECED" cx="44.363783" cy="33.4688678" rx="1.84849096" ry="1.85327377"></ellipse>
                        <ellipse id="Oval" fill="#F3CC6D" cx="101.667003" cy="26.0557727" rx="1.84849096" ry="1.85327377"></ellipse>
                        <ellipse id="Oval" fill="#F3CC6D" cx="101.667003" cy="39.0286891" rx="1.84849096" ry="1.85327377"></ellipse>
                        <ellipse id="Oval" fill="#E7ECED" cx="33.2728373" cy="64.9745218" rx="1.84849096" ry="1.85327377"></ellipse>
                        <ellipse id="Oval" fill="#E7ECED" cx="27.7273644" cy="64.9745218" rx="1.84849096" ry="1.85327377"></ellipse>
                        <ellipse id="Oval" fill="#F3CC6D" cx="22.1818915" cy="64.9745218" rx="1.84849096" ry="1.85327377"></ellipse>
                        <ellipse id="Oval" fill="#F3CC6D" cx="5.54547288" cy="42.7352366" rx="1.84849096" ry="1.85327377"></ellipse>
                        <ellipse id="Oval" fill="#F3CC6D" cx="5.54547288" cy="48.2950579" rx="1.84849096" ry="1.85327377"></ellipse>
                        <ellipse id="Oval" fill="#F3CC6D" cx="5.54547288" cy="53.8548792" rx="1.84849096" ry="1.85327377"></ellipse>
                        <ellipse id="Oval" fill="#F3CC6D" cx="49.9092559" cy="27.9090465" rx="1.84849096" ry="1.85327377"></ellipse>
                        <ellipse id="Oval" fill="#E7ECED" cx="49.9092559" cy="33.4688678" rx="1.84849096" ry="1.85327377"></ellipse>
                        <path d="M92.9624588,50.1483317 L62.3107817,50.1483317 C60.5658063,50.1483317 59.1517107,48.7305773 59.1517107,46.9810868 L59.1517107,16.2501012 C59.1517107,14.5006108 60.5658063,13.0828563 62.3107817,13.0828563 L92.9606103,13.0828563 C94.7055858,13.0828563 96.1196814,14.5006108 96.1196814,16.2501012 L96.1196814,46.9792336 C96.1215299,48.7305773 94.7074343,50.1483317 92.9624588,50.1483317 L92.9624588,50.1483317 Z" id="Shape" fill="#28812F"></path>
                        <rect id="Rectangle-path" fill="#546A79" x="59.1517107" y="0.109939969" width="7.39396384" height="5.5598213"></rect>
                        <rect id="Rectangle-path" fill="#38454F" x="66.5456745" y="0.109939969" width="7.39396384" height="5.5598213"></rect>
                        <rect id="Rectangle-path" fill="#546A79" x="73.9396384" y="0.109939969" width="7.39396384" height="5.5598213"></rect>
                        <rect id="Rectangle-path" fill="#38454F" x="81.3336022" y="0.109939969" width="7.39396384" height="5.5598213"></rect>
                        <rect id="Rectangle-path" fill="#546A79" x="88.727566" y="0.109939969" width="7.39396384" height="5.5598213"></rect>
                        <path d="M99.8185118,63.1212481 L96.1215299,63.1212481 C95.0993144,63.1212481 94.2730389,62.2928347 94.2730389,61.2679743 C94.2730389,60.2431139 95.0993144,59.4147005 96.1215299,59.4147005 L99.8185118,59.4147005 C100.840727,59.4147005 101.667003,60.2431139 101.667003,61.2679743 C101.667003,62.2928347 100.840727,63.1212481 99.8185118,63.1212481 L99.8185118,63.1212481 Z" id="Shape" fill="#BFA380"></path>
                        <path d="M99.8185118,70.5343432 L96.1215299,70.5343432 C95.0993144,70.5343432 94.2730389,69.7059298 94.2730389,68.6810694 C94.2730389,67.656209 95.0993144,66.8277956 96.1215299,66.8277956 L99.8185118,66.8277956 C100.840727,66.8277956 101.667003,67.656209 101.667003,68.6810694 C101.667003,69.7059298 100.840727,70.5343432 99.8185118,70.5343432 L99.8185118,70.5343432 Z" id="Shape" fill="#BFA380"></path>
                        <g id="Group" stroke-width="1" fill="none" transform="translate(42.515292, 59.304761)">
                            <path d="M1.84849096,3.81648751 L5.54547288,3.81648751 C6.56583989,3.81648751 7.39396384,2.98807413 7.39396384,1.96321374 C7.39396384,0.938353344 6.56583989,0.109939969 5.54547288,0.109939969 L1.84849096,0.109939969 C0.82812395,0.109939969 0,0.938353344 0,1.96321374 C0,2.98807413 0.82812395,3.81648751 1.84849096,3.81648751 L1.84849096,3.81648751 Z" id="Shape" fill="#8F8F99"></path>
                            <path d="M5.54547288,7.52303504 L1.84849096,7.52303504 C0.82812395,7.52303504 0,8.35144842 0,9.37630881 C0,10.4011692 0.82812395,11.2295826 1.84849096,11.2295826 L5.54547288,11.2295826 C6.56583989,11.2295826 7.39396384,10.4011692 7.39396384,9.37630881 C7.39396384,8.35144842 6.56583989,7.52303504 5.54547288,7.52303504 L5.54547288,7.52303504 Z" id="Shape" fill="#8F8F99"></path>
                            <path d="M5.54547288,14.9361301 L1.84849096,14.9361301 C0.82812395,14.9361301 0,15.7645435 0,16.7894039 C0,17.8142643 0.82812395,18.6426776 1.84849096,18.6426776 L5.54547288,18.6426776 C6.56583989,18.6426776 7.39396384,17.8142643 7.39396384,16.7894039 C7.39396384,15.7645435 6.56583989,14.9361301 5.54547288,14.9361301 L5.54547288,14.9361301 Z" id="Shape" fill="#8F8F99"></path>
                            <path d="M5.54547288,22.3492252 L1.84849096,22.3492252 C0.82812395,22.3492252 0,23.1776386 0,24.202499 C0,25.2273593 0.82812395,26.0557727 1.84849096,26.0557727 L5.54547288,26.0557727 C6.56583989,26.0557727 7.39396384,25.2273593 7.39396384,24.202499 C7.39396384,23.1776386 6.56583989,22.3492252 5.54547288,22.3492252 L5.54547288,22.3492252 Z" id="Shape" fill="#8F8F99"></path>
                        </g>
                        <path d="M99.8185118,77.9474382 L96.1215299,77.9474382 C95.0993144,77.9474382 94.2730389,77.1190248 94.2730389,76.0941645 C94.2730389,75.0693041 95.0993144,74.2408907 96.1215299,74.2408907 L99.8185118,74.2408907 C100.840727,74.2408907 101.667003,75.0693041 101.667003,76.0941645 C101.667003,77.1190248 100.840727,77.9474382 99.8185118,77.9474382 L99.8185118,77.9474382 Z" id="Shape" fill="#BFA380"></path>
                        <path d="M99.8185118,85.3605333 L96.1215299,85.3605333 C95.0993144,85.3605333 94.2730389,84.5321199 94.2730389,83.5072595 C94.2730389,82.4823991 95.0993144,81.6539858 96.1215299,81.6539858 L99.8185118,81.6539858 C100.840727,81.6539858 101.667003,82.4823991 101.667003,83.5072595 C101.667003,84.5321199 100.840727,85.3605333 99.8185118,85.3605333 L99.8185118,85.3605333 Z" id="Shape" fill="#BFA380"></path>
                        <path d="M36.9698192,77.9474382 L33.2728373,77.9474382 C32.2524703,77.9474382 31.4243463,77.1190248 31.4243463,76.0941645 C31.4243463,75.0693041 32.2524703,74.2408907 33.2728373,74.2408907 L36.9698192,74.2408907 C37.9901862,74.2408907 38.8183101,75.0693041 38.8183101,76.0941645 C38.8183101,77.1190248 37.9901862,77.9474382 36.9698192,77.9474382 L36.9698192,77.9474382 Z" id="Shape" fill="#F3CC6D"></path>
                        <path d="M36.9698192,83.5072595 L33.2728373,83.5072595 C32.2524703,83.5072595 31.4243463,82.6788462 31.4243463,81.6539858 C31.4243463,80.6291254 32.2524703,79.800712 33.2728373,79.800712 L36.9698192,79.800712 C37.9901862,79.800712 38.8183101,80.6291254 38.8183101,81.6539858 C38.8183101,82.6788462 37.9901862,83.5072595 36.9698192,83.5072595 L36.9698192,83.5072595 Z" id="Shape" fill="#F3CC6D"></path>
                        <path d="M22.1818915,77.9474382 L18.4849096,77.9474382 C17.4645426,77.9474382 16.6364186,77.1190248 16.6364186,76.0941645 C16.6364186,75.0693041 17.4645426,74.2408907 18.4849096,74.2408907 L22.1818915,74.2408907 C23.2022585,74.2408907 24.0303825,75.0693041 24.0303825,76.0941645 C24.0303825,77.1190248 23.2022585,77.9474382 22.1818915,77.9474382 L22.1818915,77.9474382 Z" id="Shape" fill="#F3CC6D"></path>
                        <path d="M22.1818915,83.5072595 L18.4849096,83.5072595 C17.4645426,83.5072595 16.6364186,82.6788462 16.6364186,81.6539858 C16.6364186,80.6291254 17.4645426,79.800712 18.4849096,79.800712 L22.1818915,79.800712 C23.2022585,79.800712 24.0303825,80.6291254 24.0303825,81.6539858 C24.0303825,82.6788462 23.2022585,83.5072595 22.1818915,83.5072595 L22.1818915,83.5072595 Z" id="Shape" fill="#F3CC6D"></path>
                        <path d="M18.4849096,42.7352366 C17.4645426,42.7352366 16.6364186,41.9068233 16.6364186,40.8819629 L16.6364186,37.1754153 C16.6364186,36.1505549 17.4645426,35.3221416 18.4849096,35.3221416 C19.5052766,35.3221416 20.3334006,36.1505549 20.3334006,37.1754153 L20.3334006,40.8819629 C20.3334006,41.9068233 19.5052766,42.7352366 18.4849096,42.7352366 L18.4849096,42.7352366 Z" id="Shape" fill="#38454F"></path>
                        <path d="M33.2728373,53.8548792 C32.2524703,53.8548792 31.4243463,53.0264659 31.4243463,52.0016055 L31.4243463,48.2950579 C31.4243463,47.2701975 32.2524703,46.4417842 33.2728373,46.4417842 C34.2932043,46.4417842 35.1213282,47.2701975 35.1213282,48.2950579 L35.1213282,52.0016055 C35.1213282,53.0264659 34.2932043,53.8548792 33.2728373,53.8548792 L33.2728373,53.8548792 Z" id="Shape" fill="#38454F"></path>
                        <rect id="Rectangle-path" fill="#333331" x="12.9394367" y="48.2950579" width="9.2424548" height="9.26636884"></rect>
                        <rect id="Rectangle-path" fill="#333331" x="68.3941655" y="22.3492252" width="18.4849096" height="18.5327377"></rect>
                        <g id="Group" stroke-width="1" fill="none" transform="translate(62.848693, 16.679464)">
                            <rect id="Rectangle-path" fill="#BFA380" x="7.39396384" y="0.109939969" width="3.69698192" height="5.5598213"></rect>
                            <rect id="Rectangle-path" fill="#BFA380" x="12.9394367" y="0.109939969" width="3.69698192" height="5.5598213"></rect>
                            <rect id="Rectangle-path" fill="#BFA380" x="18.4849096" y="0.109939969" width="3.69698192" height="5.5598213"></rect>
                            <rect id="Rectangle-path" fill="#BFA380" x="7.39396384" y="24.202499" width="3.69698192" height="5.5598213"></rect>
                            <rect id="Rectangle-path" fill="#BFA380" x="12.9394367" y="24.202499" width="3.69698192" height="5.5598213"></rect>
                            <rect id="Rectangle-path" fill="#BFA380" x="18.4849096" y="24.202499" width="3.69698192" height="5.5598213"></rect>
                            <rect id="Rectangle-path" fill="#BFA380" x="24.0303825" y="7.52303504" width="5.54547288" height="3.70654754"></rect>
                            <rect id="Rectangle-path" fill="#BFA380" x="24.0303825" y="13.0828563" width="5.54547288" height="3.70654754"></rect>
                            <rect id="Rectangle-path" fill="#BFA380" x="24.0303825" y="18.6426776" width="5.54547288" height="3.70654754"></rect>
                            <rect id="Rectangle-path" fill="#BFA380" x="0" y="7.52303504" width="5.54547288" height="3.70654754"></rect>
                            <rect id="Rectangle-path" fill="#BFA380" x="0" y="13.0828563" width="5.54547288" height="3.70654754"></rect>
                            <rect id="Rectangle-path" fill="#BFA380" x="0" y="18.6426776" width="5.54547288" height="3.70654754"></rect>
                        </g>
                        <rect id="Rectangle-path" fill="#353A37" x="29.5758553" y="5.66976127" width="7.39396384" height="42.6252967"></rect>
                        <rect id="Rectangle-path" fill="#353A37" x="14.7879277" y="5.66976127" width="7.39396384" height="31.5056541"></rect>
                        <rect id="Rectangle-path" fill="#333331" x="22.1818915" y="72.3876169" width="11.0909458" height="12.9729164"></rect>
                        <rect id="Rectangle-path" fill="#38454F" x="48.0607649" y="72.3876169" width="48.0607649" height="7.41309507"></rect>
                        <rect id="Rectangle-path" fill="#DD352E" x="48.0607649" y="64.9745218" width="48.0607649" height="7.41309507"></rect>
                        <rect id="Rectangle-path" fill="#DD352E" x="48.0607649" y="79.800712" width="3.69698192" height="7.41309507"></rect>
                        <rect id="Rectangle-path" fill="#DD352E" x="55.4547288" y="79.800712" width="33.2728373" height="7.41309507"></rect>
                        <rect id="Rectangle-path" fill="#DD352E" x="92.424548" y="79.800712" width="3.69698192" height="7.41309507"></rect>
                        <rect id="Rectangle-path" fill="#38454F" x="55.4547288" y="57.5614268" width="33.2728373" height="7.41309507"></rect>
                        <rect id="Rectangle-path" fill="#38454F" x="92.424548" y="57.5614268" width="3.69698192" height="7.41309507"></rect>
                        <rect id="Rectangle-path" fill="#38454F" x="48.0607649" y="57.5614268" width="3.69698192" height="7.41309507"></rect>
                        <g id="Group" stroke-width="1" fill="none" transform="translate(51.757747, 57.451487)">
                            <polygon id="Shape" fill="#283238" points="0 7.52303504 0 22.3492252 0 29.7623203 3.69698192 29.7623203 3.69698192 22.3492252 3.69698192 7.52303504 3.69698192 0.109939969 0 0.109939969"></polygon>
                            <polygon id="Shape" fill="#283238" points="36.9698192 0.109939969 36.9698192 7.52303504 36.9698192 22.3492252 36.9698192 29.7623203 40.6668011 29.7623203 40.6668011 22.3492252 40.6668011 7.52303504 40.6668011 0.109939969"></polygon>
                        </g>
                        <path d="M49.9092559,1.96321374 C49.9092559,0.938353344 49.0811319,0.109939969 48.0607649,0.109939969 C47.0403979,0.109939969 46.212274,0.938353344 46.212274,1.96321374 L46.212274,5.66976127 L49.9092559,5.66976127 L49.9092559,1.96321374 L49.9092559,1.96321374 Z" id="Shape" fill="#CBD4D8"></path>
                        <path d="M55.4547288,1.96321374 C55.4547288,0.938353344 54.6266048,0.109939969 53.6062378,0.109939969 C52.5858708,0.109939969 51.7577469,0.938353344 51.7577469,1.96321374 L51.7577469,5.66976127 L55.4547288,5.66976127 L55.4547288,1.96321374 L55.4547288,1.96321374 Z" id="Shape" fill="#CBD4D8"></path>
                        <path d="M103.515494,1.96321374 C103.515494,0.938353344 102.689218,0.109939969 101.667003,0.109939969 C100.644787,0.109939969 99.8185118,0.938353344 99.8185118,1.96321374 L99.8185118,5.66976127 L103.515494,5.66976127 L103.515494,1.96321374 L103.515494,1.96321374 Z" id="Shape" fill="#CBD4D8"></path>
                    </g>
                </g>
            </g>
        </g>
    </g>
</svg>