<?xml version="1.0" encoding="UTF-8"?>
<svg width="200px" height="200px" viewBox="0 0 200 200" version="1.1" xmlns="http://www.w3.org/2000/svg" xmlns:xlink="http://www.w3.org/1999/xlink">
    <!-- Generator: Sketch 40.2 (33826) - http://www.bohemiancoding.com/sketch -->
    <title>icons/dashboard</title>
    <desc>Created with Sketch.</desc>
    <defs>
        <polygon id="path-1" points="200 87 150 173.60254 50 173.60254 0 87 50 0.397459622 150 0.397459622"></polygon>
        <filter x="-50%" y="-50%" width="200%" height="200%" filterUnits="objectBoundingBox" id="filter-3">
            <feOffset dx="1.5" dy="2" in="SourceAlpha" result="shadowOffsetOuter1"></feOffset>
            <feGaussianBlur stdDeviation="5" in="shadowOffsetOuter1" result="shadowBlurOuter1"></feGaussianBlur>
            <feColorMatrix values="0 0 0 0 0   0 0 0 0 0   0 0 0 0 0  0 0 0 0.292742301 0" type="matrix" in="shadowBlurOuter1"></feColorMatrix>
        </filter>
        <linearGradient x1="85.8442164%" y1="50%" x2="0%" y2="50%" id="linearGradient-4">
            <stop stop-color="#FBDA61" offset="0%"></stop>
            <stop stop-color="#F76B1C" offset="100%"></stop>
        </linearGradient>
        <polygon id="path-5" points="200 87 150 173.60254 50 173.60254 0 87 50 0.397459622 150 0.397459622"></polygon>
    </defs>
    <g id="Symbols" stroke="none" stroke-width="1" fill="none" fill-rule="evenodd">
        <g id="icons/dashboard">
            <g transform="translate(0.000000, 13.000000)" id="Layer_1">
                <g>
                    <mask id="mask-2" fill="white">
                        <use xlink:href="#path-1"></use>
                    </mask>
                    <g id="Polygon" fill-opacity="1" fill="black">
                        <use filter="url(#filter-3)" xlink:href="#path-1"></use>
                    </g>
                    <mask id="mask-6" fill="white">
                        <use xlink:href="#path-5"></use>
                    </mask>
                    <use id="Polygon" fill="url(#linearGradient-4)" xlink:href="#path-5"></use>
                    <g id="Icon" mask="url(#mask-6)">
                        <g transform="translate(25.000000, 33.000000)">
                            <path d="M11.4646084,86.9433594 C4.07614834,86.9433594 0.169427711,83.0252441 0.169427711,75.6152344 C0.169427711,34.2321777 33.7372929,0.56640625 75,0.56640625 C116.262707,0.56640625 149.830572,34.2321777 149.830572,75.6152344 C149.830572,83.0252441 145.923852,86.9433594 138.535392,86.9433594 L11.4646084,86.9433594 L11.4646084,86.9433594 Z" id="Shape" fill="#263740"></path>
                            <path d="M75,0.56640625 C74.2898155,0.56640625 73.5881024,0.598974609 72.8821536,0.620214844 C113.166416,1.75161133 145.59488,34.9430176 145.59488,75.6152344 C145.59488,83.0252441 141.688159,86.9433594 134.299699,86.9433594 L138.535392,86.9433594 C145.923852,86.9433594 149.830572,83.0252441 149.830572,75.6152344 C149.830572,34.2321777 116.262707,0.56640625 75,0.56640625 L75,0.56640625 Z" id="Shape" fill="#1E2C33"></path>
                            <path d="M11.4646084,75.6152344 C11.4646084,40.421582 39.9101092,11.8945312 75,11.8945312 C110.089891,11.8945312 138.535392,40.421582 138.535392,75.6152344 L11.4646084,75.6152344 L11.4646084,75.6152344 Z" id="Shape" fill="#F5F5F5"></path>
                            <path d="M77.8237952,11.966748 C76.8862952,11.9242676 75.9473833,11.8945312 75,11.8945312 C39.9101092,11.8945312 11.4646084,40.421582 11.4646084,75.6152344 L17.1121988,75.6152344 C17.1121988,41.3731445 44.0455572,13.4493164 77.8237952,11.966748 L77.8237952,11.966748 Z" id="Shape" fill="#E6E6E6"></path>
                            <path d="M44.1952184,34.4304199 C36.1855233,40.2120117 29.9011672,48.3144531 26.2994164,58.0736328 C25.2150791,61.0047852 26.7102786,64.2644531 29.6357304,65.3505371 C32.5484752,66.4394531 35.8085467,64.9398926 36.8914721,62.0044922 C39.8381024,54.0181641 44.9294051,47.5356445 51.466491,43.0355469 L44.1952184,34.4304199 L44.1952184,34.4304199 Z" id="Shape" fill="#CC6152"></path>
                            <path d="M113.108528,62.0044922 C113.951431,64.2899414 116.10881,65.704541 118.404556,65.704541 C119.056852,65.704541 119.719032,65.5912598 120.36427,65.3505371 C123.289721,64.2644531 124.784921,61.0076172 123.700584,58.0736328 C120.553464,49.5478027 115.34215,42.3105469 108.740117,36.7569336 L101.00433,44.8990234 C106.35401,49.2575195 110.545934,55.0575195 113.108528,62.0044922 L113.108528,62.0044922 Z" id="Shape" fill="#74B340"></path>
                            <path d="M44.1952184,34.4672363 L51.4453125,43.0582031 C58.0572289,38.5000488 66.148814,35.9667969 75,35.9667969 L75,24.6386719 C63.515625,24.6386719 52.8557982,28.2084473 44.1952184,34.4672363 L44.1952184,34.4672363 Z" id="Shape" fill="#E78244"></path>
                            <path d="M101.005742,44.9032715 L108.741529,36.7583496 C99.6150226,29.0807129 87.8172063,24.6386719 75,24.6386719 L75,35.9667969 C84.9764684,35.9667969 93.9886107,39.1854004 101.005742,44.9032715 L101.005742,44.9032715 Z" id="Shape" fill="#FFD464"></path>
                            <g id="Group" stroke-width="1" fill="none" transform="translate(41.114458, 30.302734)">
                                <path d="M38.2525414,45.3125 C38.2130083,44.4147461 37.9052146,43.5240723 37.2868035,42.7820801 L2.31692395,0.743408203 C1.95406627,0.304443359 1.31447666,0.201074219 0.828783886,0.522509766 C0.307793675,0.865185547 0.162368223,1.5675293 0.505459337,2.09003906 L28.8253012,45.3125 L38.2525414,45.3125 L38.2525414,45.3125 Z" id="Shape" fill="#E16B5A"></path>
                                <path d="M24.002259,45.3125 C24.002259,39.8381836 28.4271461,35.4003906 33.8855422,35.4003906 C39.3439383,35.4003906 43.7688253,39.8381836 43.7688253,45.3125 L24.002259,45.3125 L24.002259,45.3125 Z" id="Shape" fill="#E16B5A"></path>
                            </g>
                        </g>
                    </g>
                </g>
            </g>
        </g>
    </g>
</svg>