<?xml version="1.0" encoding="UTF-8"?>
<svg width="138px" height="167px" viewBox="0 0 138 167" version="1.1" xmlns="http://www.w3.org/2000/svg" xmlns:xlink="http://www.w3.org/1999/xlink">
    <!-- Generator: Sketch 40.2 (33826) - http://www.bohemiancoding.com/sketch -->
    <title>Tower</title>
    <desc>Created with Sketch.</desc>
    <defs></defs>
    <g id="Welcome-Copy" stroke="none" stroke-width="1" fill="none" fill-rule="evenodd">
        <g id="Desktop-HD" transform="translate(-913.000000, -195.000000)" fill="#FFFFFF">
            <g id="Section-1">
                <g id="Group-2" transform="translate(411.000000, 194.000000)">
                    <g id="Logo" transform="translate(4.000000, 0.000000)">
                        <g id="Tower" transform="translate(498.000000, 0.715000)">
                            <g id="lighthouse">
                                <polygon id="Shape" points="0.5 166.3925 114 166.3925 114 159 0.5 159"></polygon>
                                <polygon id="Shape" points="95.5874016 159.82063 18.0822835 159.82063 30.3767717 47.3011417 83.2929134 47.3011417"></polygon>
                                <path d="M84.6635827,50 L29.0061024,50 C27.344685,50 26.0155512,48.2933421 26.0155512,46.1600197 L26.0155512,46.1600197 C26.0155512,44.0266973 27.344685,42.3200394 29.0061024,42.3200394 L84.7051181,42.3200394 C86.3665354,42.3200394 87.6956693,44.0266973 87.6956693,46.1600197 L87.6956693,46.1600197 C87.6541339,48.2933421 86.325,50 84.6635827,50 L84.6635827,50 Z" id="Shape"></path>
                                <rect id="Rectangle-path" x="36.648622" y="17.3188583" width="40.3724409" height="26.0011811"></rect>
                                <path d="M79.9285433,18.3188583 L33.7411417,18.3188583 C32.6612205,18.3188583 31.7889764,16.9826545 31.7889764,15.3283071 L31.7889764,15.3283071 C31.7889764,13.6739596 32.6612205,12.3377559 33.7411417,12.3377559 L79.9285433,12.3377559 C81.0084646,12.3377559 81.8807087,13.6739596 81.8807087,15.3283071 L81.8807087,15.3283071 C81.8807087,16.9826545 81.0084646,18.3188583 79.9285433,18.3188583 L79.9285433,18.3188583 Z" id="Shape"></path>
                                <polygon id="Shape" points="77.021063 14.4145276 36.648622 14.4145276 56.8348425 0.749370079"></polygon>
                                <polygon id="Shape" points="137.784252 50.785 137.784252 7.285 76.0625984 20.0155118 76.0625984 38.6233858"></polygon>
                            </g>
                        </g>
                    </g>
                </g>
            </g>
        </g>
    </g>
</svg>