<?xml version="1.0" encoding="UTF-8"?>
<svg width="200px" height="174px" viewBox="0 0 200 174" version="1.1" xmlns="http://www.w3.org/2000/svg" xmlns:xlink="http://www.w3.org/1999/xlink">
    <!-- Generator: Sketch 40.2 (33826) - http://www.bohemiancoding.com/sketch -->
    <title>icons/dashboard--monochrome</title>
    <desc>Created with Sketch.</desc>
    <defs>
        <polygon id="path-1" points="200 87 150 173.60254 50 173.60254 0 87 50 0.397459622 150 0.397459622"></polygon>
    </defs>
    <g id="Symbols" stroke="none" stroke-width="1" fill="none" fill-rule="evenodd">
        <g id="Icons-Monochrome" transform="translate(-516.000000, -69.000000)">
            <g id="icons/dashboard--monochrome" transform="translate(516.000000, 69.000000)">
                <g id="dashboard--monochrome">
                    <g id="Layer_1">
                        <mask id="mask-2" fill="white">
                            <use xlink:href="#path-1"></use>
                        </mask>
                        <use id="Polygon" fill="#949494" xlink:href="#path-1"></use>
                        <g id="Icon" mask="url(#mask-2)">
                            <g transform="translate(25.000000, 33.000000)" id="Shape">
                                <path d="M0.169427711,75.6152344 C0.169427711,34.2321777 33.7372929,0.56640625 75,0.56640625 C116.262707,0.56640625 149.830572,34.2321777 149.830572,75.6152344 C149.830572,83.0252441 145.923852,86.9433594 138.535392,86.9433594 L11.4646084,86.9433594 C4.07614834,86.9433594 0.169427711,83.0252441 0.169427711,75.6152344 Z" fill="#4A4A4A"></path>
                                <path d="M11.4646084,75.6152344 C11.4646084,40.421582 39.9101092,11.8945312 75,11.8945312 C110.089891,11.8945312 138.535392,40.421582 138.535392,75.6152344 L11.4646084,75.6152344 L11.4646084,75.6152344 Z" fill="#949494"></path>
                                <path d="M44.1952184,34.4304199 C36.1855233,40.2120117 29.9011672,48.3144531 26.2994164,58.0736328 C25.2150791,61.0047852 26.7102786,64.2644531 29.6357304,65.3505371 C32.5484752,66.4394531 35.8085467,64.9398926 36.8914721,62.0044922 C39.8381024,54.0181641 44.9294051,47.5356445 51.466491,43.0355469 L44.1952184,34.4304199 L44.1952184,34.4304199 Z" fill="#4A4A4A"></path>
                                <path d="M118.404556,65.704541 C119.056852,65.704541 119.719032,65.5912598 120.36427,65.3505371 C123.289721,64.2644531 124.784921,61.0076172 123.700584,58.0736328 C120.553464,49.5478027 115.34215,42.3105469 108.740117,36.7569336 L101.00433,44.8990234 C106.35401,49.2575195 110.545934,55.0575195 113.108528,62.0044922 C113.951431,64.2899414 116.10881,65.704541 118.404556,65.704541 Z" fill="#4A4A4A"></path>
                                <path d="M44.1952184,34.4672363 L51.4453125,43.0582031 C58.0572289,38.5000488 66.148814,35.9667969 75,35.9667969 L75,24.6386719 C63.515625,24.6386719 52.8557982,28.2084473 44.1952184,34.4672363 L44.1952184,34.4672363 Z" fill="#4A4A4A"></path>
                                <path d="M108.741529,36.7583496 C99.6150226,29.0807129 87.8172063,24.6386719 75,24.6386719 L75,35.9667969 C84.9764684,35.9667969 93.9886107,39.1854004 101.005742,44.9032715 L108.741529,36.7583496 Z" fill="#4A4A4A"></path>
                                <path d="M79.3669992,75.6152344 C79.3274661,74.7174805 79.0196724,73.8268066 78.4012613,73.0848145 L43.4313818,31.0461426 C43.0685241,30.6071777 42.4289345,30.5038086 41.9432417,30.8252441 C41.4222515,31.1679199 41.2768261,31.8702637 41.6199172,32.3927734 L69.939759,75.6152344 L79.3669992,75.6152344 L79.3669992,75.6152344 Z" fill="#4A4A4A"></path>
                                <path d="M65.1167169,75.6152344 C65.1167169,70.140918 69.5416039,65.703125 75,65.703125 C80.4583961,65.703125 84.8832831,70.140918 84.8832831,75.6152344 L65.1167169,75.6152344 L65.1167169,75.6152344 Z" fill="#4A4A4A"></path>
                            </g>
                        </g>
                    </g>
                </g>
            </g>
        </g>
    </g>
</svg>