<?xml version="1.0" encoding="UTF-8"?>
<svg width="200px" height="174px" viewBox="0 0 200 174" version="1.1" xmlns="http://www.w3.org/2000/svg" xmlns:xlink="http://www.w3.org/1999/xlink">
    <!-- Generator: Sketch 40.2 (33826) - http://www.bohemiancoding.com/sketch -->
    <title>icons/message--monochrome</title>
    <desc>Created with Sketch.</desc>
    <defs>
        <polygon id="path-1" points="200 87 150 173.60254 50 173.60254 0 87 50 0.397459622 150 0.397459622"></polygon>
    </defs>
    <g id="Symbols" stroke="none" stroke-width="1" fill="none" fill-rule="evenodd">
        <g id="Icons-Monochrome" transform="translate(-52.000000, -301.000000)">
            <g id="icons/message--monochrome" transform="translate(52.000000, 301.000000)">
                <g>
                    <mask id="mask-2" fill="white">
                        <use xlink:href="#path-1"></use>
                    </mask>
                    <use id="Polygon" fill="#949494" xlink:href="#path-1"></use>
                    <g id="contact" mask="url(#mask-2)" fill="#4A4A4A">
                        <g transform="translate(43.000000, 46.000000)" id="Shape">
                            <path d="M113.363636,0 L2.63636364,0 C1.17845455,0 0,1.173375 0,2.625 L0,81.375 C0,82.826625 1.17845455,84 2.63636364,84 L113.363636,84 C114.818909,84 116,82.826625 116,81.375 L116,2.625 C116,1.173375 114.818909,0 113.363636,0 L113.363636,0 Z M110.727273,72.400125 L78.068,39.88425 L74.3401818,43.596 L109.646364,78.75 L6.35363636,78.75 L41.6598182,43.596 L37.932,39.88425 L5.27272727,72.400125 L5.27272727,5.25 L110.727273,5.25 L110.727273,72.400125 L110.727273,72.400125 Z"></path>
                            <path d="M105.399182,5.25 L58,52.444875 L10.6008182,5.25 L5.27272727,5.25 L5.27272727,7.368375 L56.1360909,58.0125 C57.1669091,59.038875 58.8330909,59.038875 59.8639091,58.0125 L110.727273,7.368375 L110.727273,5.25 L105.399182,5.25 L105.399182,5.25 Z"></path>
                        </g>
                    </g>
                </g>
            </g>
        </g>
    </g>
</svg>