<?xml version="1.0" encoding="UTF-8"?>
<svg width="200px" height="174px" viewBox="0 0 200 174" version="1.1" xmlns="http://www.w3.org/2000/svg" xmlns:xlink="http://www.w3.org/1999/xlink">
    <!-- Generator: Sketch 40.2 (33826) - http://www.bohemiancoding.com/sketch -->
    <title>icons/settings--monochrome</title>
    <desc>Created with Sketch.</desc>
    <defs>
        <polygon id="path-1" points="200 87 150 173.60254 50 173.60254 0 87 50 0.397459622 150 0.397459622"></polygon>
    </defs>
    <g id="Symbols" stroke="none" stroke-width="1" fill="none" fill-rule="evenodd">
        <g id="Icons-Monochrome" transform="translate(-284.000000, -301.000000)">
            <g id="icons/settings--monochrome" transform="translate(284.000000, 301.000000)">
                <g>
                    <mask id="mask-2" fill="white">
                        <use xlink:href="#path-1"></use>
                    </mask>
                    <use id="Polygon" fill="#949494" xlink:href="#path-1"></use>
                    <path d="M88.1241379,6.2 C80.7344828,4.77931034 77.3482759,-3.85517241 81.7965517,-9.92068966 L82.9758621,-11.5275862 C73.0482759,-9.82413793 63.6310345,-6.64137931 54.9310345,-2.24482759 C60.9931034,-0.789655172 65.5172414,4.62758621 65.5172414,11.137931 C65.5172414,18.7551724 59.3413793,24.9310345 51.7241379,24.9310345 C44.1068966,24.9310345 37.9310345,18.7551724 37.9310345,11.137931 C37.9310345,10.2034483 38.0275862,9.28965517 38.2068966,8.40689655 C42.0344828,5.39310345 30.7344828,13.9172414 23.1206897,23.0586207 C24.6965517,26.1965517 24.7241379,30.0965517 22.4931034,33.3827586 L19.6482759,37.5793103 L26.4,44.3310345 L30.662069,41.2068966 C36.7310345,36.7586207 45.362069,40.1448276 46.7827586,47.5344828 L47.7448276,52.5172414 L57.2931034,52.5172414 L57.8586207,48.8413793 C59.0275862,41.2413793 67.8448276,37.5896552 74.0448276,42.137931 L77.0413793,44.3344828 L83.7931034,37.5827586 L80.9482759,33.3862069 C76.7275862,27.1551724 80.437931,18.6551724 87.8724138,17.5103448 L93.1034483,16.7068966 L93.1034483,7.15862069 L88.1241379,6.2 L88.1241379,6.2 Z" id="Shape" fill="#4A4A4A" mask="url(#mask-2)"></path>
                    <path d="M168.965517,140.448276 C168.965517,129.972414 177.455172,121.482759 187.931034,121.482759 C189.87931,121.482759 191.755172,121.77931 193.524138,122.324138 C195.662069,116.662069 197.324138,110.762069 198.413793,104.662069 C196.248276,102.782759 194.665517,100.162069 194.175862,96.9793103 L193.168966,90.4482759 L181.231034,90.4482759 L179.686207,98.4862069 C177.948276,107.517241 167.541379,111.831034 159.924138,106.672414 L153.148276,102.082759 L144.706897,110.524138 L148.613793,115.851724 C154.175862,123.434483 149.941379,134.227586 140.703448,136.003448 L134.482759,137.2 L134.482759,149.137931 L141.013793,150.141379 C150.310345,151.572414 154.944828,162.2 149.668966,169.986207 L146.113793,175.231034 L146.441379,175.558621 C157.034483,169.989655 166.47931,162.558621 174.4,153.731034 C171.041379,150.306897 168.965517,145.62069 168.965517,140.448276 L168.965517,140.448276 Z" id="Shape" fill="#4A4A4A" mask="url(#mask-2)"></path>
                    <path d="M182.410345,67.9827586 C182.372414,67.9448276 182.32069,67.9344828 182.27931,67.8965517 C187.082759,62.3 190.537931,55.5137931 192.12069,48.0310345 C182,24.137931 162.858621,4.99655172 138.965517,-5.12413793 C131.482759,-3.54482759 124.696552,-0.0862068966 119.1,4.71724138 C119.065517,4.67931034 119.051724,4.62758621 119.013793,4.5862069 L114.137931,-0.289655172 C112.789655,-1.63793103 110.610345,-1.63793103 109.262069,-0.289655172 C107.913793,1.05862069 107.913793,3.23793103 109.262069,4.5862069 L114.137931,9.46206897 C114.17931,9.50344828 114.237931,9.51724138 114.27931,9.55517241 C108.237931,16.5862069 104.337931,25.4965517 103.596552,35.3034483 C103.544828,35.3034483 103.5,35.2758621 103.448276,35.2758621 L96.5517241,35.2758621 C94.6482759,35.2758621 93.1034483,36.8172414 93.1034483,38.7241379 C93.1034483,40.6310345 94.6482759,42.1724138 96.5517241,42.1724138 L103.448276,42.1724138 C103.510345,42.1724138 103.558621,42.1413793 103.62069,42.137931 C104.362069,51.9448276 108.237931,60.8586207 114.27931,67.8931034 C114.237931,67.9310345 114.182759,67.9448276 114.141379,67.9862069 L109.265517,72.862069 C107.917241,74.2103448 107.917241,76.3896552 109.265517,77.737931 C109.937931,78.4103448 110.82069,78.7482759 111.703448,78.7482759 C112.586207,78.7482759 113.468966,78.4103448 114.141379,77.737931 L119.017241,72.862069 C119.058621,72.8206897 119.072414,72.7655172 119.110345,72.7241379 C126.141379,78.762069 135.058621,82.6413793 144.865517,83.3827586 C144.858621,83.4413793 144.827586,83.4896552 144.827586,83.5517241 L144.827586,90.4482759 C144.827586,92.3551724 146.372414,93.8965517 148.275862,93.8965517 C150.17931,93.8965517 151.724138,92.3551724 151.724138,90.4482759 L151.724138,83.5517241 C151.724138,83.4965517 151.696552,83.4551724 151.693103,83.4 C161.5,82.6586207 170.410345,78.7586207 177.441379,72.7172414 C177.47931,72.7586207 177.493103,72.8172414 177.534483,72.8586207 L182.410345,77.7344828 C183.082759,78.4068966 183.965517,78.7448276 184.848276,78.7448276 C185.731034,78.7448276 186.613793,78.4068966 187.286207,77.7344828 C188.634483,76.3862069 188.634483,74.2068966 187.286207,72.8586207 L182.410345,67.9827586 L182.410345,67.9827586 Z M148.275862,49.0689655 C142.562069,49.0689655 137.931034,44.437931 137.931034,38.7241379 C137.931034,33.0103448 142.562069,28.3793103 148.275862,28.3793103 C153.989655,28.3793103 158.62069,33.0103448 158.62069,38.7241379 C158.62069,44.437931 153.989655,49.0689655 148.275862,49.0689655 L148.275862,49.0689655 Z" id="Shape" fill="#4A4A4A" mask="url(#mask-2)"></path>
                    <ellipse id="Oval" fill="#4A4A4A" mask="url(#mask-2)" cx="62.0689655" cy="124.931034" rx="10.3448276" ry="10.3448276"></ellipse>
                    <path d="M125.537931,149.365517 L117.010345,145.575862 C116.986207,145.565517 116.962069,145.568966 116.941379,145.562069 C119.362069,139.148276 120.689655,132.196552 120.689655,124.931034 C120.689655,118.644828 119.675862,112.6 117.844828,106.924138 C117.868966,106.917241 117.889655,106.92069 117.913793,106.910345 L125.386207,104.003448 C127.162069,103.313793 128.041379,101.317241 127.351724,99.5413793 C126.662069,97.7655172 124.672414,96.8793103 122.889655,97.5793103 L115.417241,100.486207 C115.382759,100.5 115.362069,100.527586 115.327586,100.541379 C109.865517,88.6344828 100.558621,78.8827586 88.962069,72.8793103 C88.9793103,72.8448276 89.0034483,72.8241379 89.0206897,72.7896552 L92.8103448,64.262069 C93.5827586,62.5206897 92.8,60.4827586 91.0586207,59.7103448 C89.3172414,58.9413793 87.2827586,59.7241379 86.5068966,61.462069 L82.7172414,69.9896552 C82.7,70.0310345 82.7068966,70.0724138 82.6896552,70.1137931 C76.2655172,67.6931034 69.337931,66.3103448 62.0689655,66.3103448 C55.7758621,66.3103448 49.7448276,67.3551724 44.0689655,69.1896552 C44.0586207,69.1551724 44.0655172,69.1206897 44.0517241,69.0862069 L41.1448276,61.6103448 C40.4551724,59.8344828 38.4517241,58.9517241 36.6827586,59.6482759 C34.9068966,60.3344828 34.0275862,62.3344828 34.7172414,64.1103448 L37.6241379,71.5862069 C37.6344828,71.6172414 37.6586207,71.637931 37.6724138,71.6689655 C25.7137931,77.1724138 15.9586207,86.5862069 9.97931034,98.2793103 C9.92758621,98.2551724 9.89655172,98.2068966 9.84137931,98.1827586 L2.5,94.9517241 C1.7862069,94.637931 1.03793103,94.6448276 0.331034483,94.8103448 C0.513793103,97.1862069 0.75862069,99.5448276 1.10689655,101.872414 L7.06206897,104.493103 C7.11034483,104.513793 7.16551724,104.506897 7.2137931,104.524138 C5.87241379,108.134483 4.84137931,111.893103 4.22758621,115.8 L4.22758621,115.803448 C5.41034483,119.741379 6.83448276,123.572414 8.47241379,127.289655 C8.54827586,127.458621 8.62413793,127.624138 8.7,127.793103 C9.44827586,129.468966 10.2448276,131.117241 11.0827586,132.744828 C11.1724138,132.917241 11.2586207,133.093103 11.3482759,133.265517 C14.1206897,138.568966 17.3586207,143.593103 21.0034483,148.282759 C21.1448276,148.462069 21.2862069,148.644828 21.4310345,148.824138 C22.5655172,150.262069 23.7344828,151.672414 24.9448276,153.044828 C25.0275862,153.137931 25.1068966,153.234483 25.1896552,153.327586 C27.8413793,156.317241 30.6724138,159.148276 33.662069,161.8 C33.7551724,161.882759 33.8517241,161.962069 33.9448276,162.044828 C35.3172414,163.255172 36.7275862,164.424138 38.1655172,165.558621 C38.3448276,165.703448 38.5275862,165.844828 38.7068966,165.986207 C43.3965517,169.631034 48.4206897,172.868966 53.7241379,175.641379 C53.8965517,175.731034 54.0724138,175.82069 54.2448276,175.910345 C55.8689655,176.748276 57.5206897,177.541379 59.1931034,178.289655 C59.362069,178.365517 59.5275862,178.441379 59.6965517,178.517241 C63.4137931,180.155172 67.2448276,181.57931 71.1827586,182.762069 L71.1896552,182.762069 C74.162069,182.296552 77.037931,181.562069 79.8448276,180.668966 C79.8655172,180.727586 79.8517241,180.789655 79.8758621,180.848276 L81.5758621,185.268966 C84.1551724,185.748276 86.7655172,186.151724 89.4103448,186.427586 L86.3206897,178.37931 C86.3034483,178.337931 86.2689655,178.310345 86.2517241,178.268966 C98.2586207,172.831034 108.065517,163.455172 114.110345,151.806897 C114.148276,151.827586 114.172414,151.862069 114.210345,151.87931 L122.737931,155.668966 C123.193103,155.872414 123.668966,155.965517 124.137931,155.965517 C125.458621,155.965517 126.72069,155.2 127.293103,153.917241 C128.062069,152.175862 127.27931,150.141379 125.537931,149.365517 L125.537931,149.365517 Z M62.0689655,149.068966 C48.737931,149.068966 37.9310345,138.262069 37.9310345,124.931034 C37.9310345,111.6 48.737931,100.793103 62.0689655,100.793103 C75.4,100.793103 86.2068966,111.6 86.2068966,124.931034 C86.2068966,138.262069 75.4,149.068966 62.0689655,149.068966 L62.0689655,149.068966 Z" id="Shape" fill="#4A4A4A" mask="url(#mask-2)"></path>
                </g>
            </g>
        </g>
    </g>
</svg>