<?xml version="1.0" encoding="UTF-8"?>
<svg width="218px" height="194px" viewBox="0 0 218 194" version="1.1" xmlns="http://www.w3.org/2000/svg" xmlns:xlink="http://www.w3.org/1999/xlink">
    <!-- Generator: Sketch 40.2 (33826) - http://www.bohemiancoding.com/sketch -->
    <title>icons/tower</title>
    <desc>Created with Sketch.</desc>
    <defs>
        <polygon id="path-1" points="200 87 150 173.60254 50 173.60254 0 87 50 0.397459622 150 0.397459622"></polygon>
        <filter x="-50%" y="-50%" width="200%" height="200%" filterUnits="objectBoundingBox" id="filter-3">
            <feOffset dx="1.5" dy="2" in="SourceAlpha" result="shadowOffsetOuter1"></feOffset>
            <feGaussianBlur stdDeviation="5" in="shadowOffsetOuter1" result="shadowBlurOuter1"></feGaussianBlur>
            <feColorMatrix values="0 0 0 0 0   0 0 0 0 0   0 0 0 0 0  0 0 0 0.292742301 0" type="matrix" in="shadowBlurOuter1"></feColorMatrix>
        </filter>
        <linearGradient x1="0%" y1="46.2955337%" x2="100%" y2="46.6935515%" id="linearGradient-4">
            <stop stop-color="#3023AE" offset="0%"></stop>
            <stop stop-color="#3023AE" offset="2.79891152%"></stop>
            <stop stop-color="#653CBC" offset="47.4595075%"></stop>
            <stop stop-color="#C96DD8" offset="100%"></stop>
        </linearGradient>
        <polygon id="path-5" points="200 87 150 173.60254 50 173.60254 0 87 50 0.397459622 150 0.397459622"></polygon>
    </defs>
    <g id="Symbols" stroke="none" stroke-width="1" fill="none" fill-rule="evenodd">
        <g id="Icons" transform="translate(-45.000000, -61.000000)">
            <g id="Icons-/-Tower" transform="translate(52.000000, 56.000000)">
                <g id="Tower" transform="translate(0.000000, 13.000000)">
                    <g id="lighthouse">
                        <mask id="mask-2" fill="white">
                            <use xlink:href="#path-1"></use>
                        </mask>
                        <g id="Polygon" fill-opacity="1" fill="black">
                            <use filter="url(#filter-3)" xlink:href="#path-1"></use>
                        </g>
                        <mask id="mask-6" fill="white">
                            <use xlink:href="#path-5"></use>
                        </mask>
                        <use id="Polygon" fill="url(#linearGradient-4)" xlink:href="#path-5"></use>
                        <path d="M36.496063,164.244094 C53.7795276,178.456693 75.8661417,187 100,187 C124.133858,187 146.220472,178.456693 163.503937,164.244094 L36.496063,164.244094 L36.496063,164.244094 Z" id="Shape" fill="#2B3B4E" mask="url(#mask-6)"></path>
                        <polygon id="Shape" fill="#E6E9EE" mask="url(#mask-6)" points="123.779528 163.811024 50.3149606 163.811024 61.9685039 57.1574803 112.125984 57.1574803"></polygon>
                        <polygon id="Shape" fill="#CED5E0" mask="url(#mask-6)" points="109.370079 163.811024 64.7244094 163.811024 75.1968504 57.1574803 98.8582677 57.1574803"></polygon>
                        <path d="M113.425197,57.1574803 L60.6692913,57.1574803 C59.0944882,57.1574803 57.8346457,55.8976378 57.8346457,54.3228346 L57.8346457,54.3228346 C57.8346457,52.7480315 59.0944882,51.488189 60.6692913,51.488189 L113.464567,51.488189 C115.03937,51.488189 116.299213,52.7480315 116.299213,54.3228346 L116.299213,54.3228346 C116.259843,55.8976378 115,57.1574803 113.425197,57.1574803 L113.425197,57.1574803 Z" id="Shape" fill="#FFFFFF" mask="url(#mask-6)"></path>
                        <rect id="Rectangle-path" fill="#FF7058" mask="url(#mask-6)" x="67.9133858" y="26.8425197" width="38.2677165" height="24.6456693"></rect>
                        <rect id="Rectangle-path" fill="#F1543F" mask="url(#mask-6)" x="77.2834646" y="26.8425197" width="19.5275591" height="24.6456693"></rect>
                        <path d="M108.937008,26.8425197 L65.1574803,26.8425197 C64.1338583,26.8425197 63.3070866,26.015748 63.3070866,24.992126 L63.3070866,24.992126 C63.3070866,23.9685039 64.1338583,23.1417323 65.1574803,23.1417323 L108.937008,23.1417323 C109.96063,23.1417323 110.787402,23.9685039 110.787402,24.992126 L110.787402,24.992126 C110.787402,26.015748 109.96063,26.8425197 108.937008,26.8425197 L108.937008,26.8425197 Z" id="Shape" fill="#FFFFFF" mask="url(#mask-6)"></path>
                        <polygon id="Shape" fill="#FF7058" mask="url(#mask-6)" points="106.181102 23.1023622 67.9133858 23.1023622 87.0472441 10.1889764"></polygon>
                        <polygon id="Shape" fill="#F1543F" mask="url(#mask-6)" points="96.8110236 23.1023622 77.2834646 23.1023622 87.0472441 10.1889764"></polygon>
                        <g id="Group" mask="url(#mask-6)" fill="#ACB3BA">
                            <g transform="translate(82.283465, 69.677165)" id="Rectangle-path">
                                <rect x="0.275590551" y="0.275590551" width="8.97637795" height="13.9370079"></rect>
                                <rect x="0.275590551" y="23.6220472" width="8.97637795" height="13.9370079"></rect>
                                <rect x="0.275590551" y="47.007874" width="8.97637795" height="13.9370079"></rect>
                                <rect x="0.275590551" y="70.3543307" width="8.97637795" height="13.9370079"></rect>
                            </g>
                        </g>
                        <path d="M106.181102,47.984252 L199.685039,79.2834646 C197.598425,51.8818898 184.448819,27.5905512 164.724409,10.7795276 L106.220472,30.3464567 L106.220472,47.984252 L106.181102,47.984252 L106.181102,47.984252 Z" id="Shape" fill="#FFD05B" mask="url(#mask-6)"></path>
                    </g>
                </g>
            </g>
        </g>
    </g>
</svg>