<?xml version="1.0" encoding="UTF-8"?>
<svg width="200px" height="200px" viewBox="0 0 200 200" version="1.1" xmlns="http://www.w3.org/2000/svg" xmlns:xlink="http://www.w3.org/1999/xlink">
    <!-- Generator: Sketch 40.2 (33826) - http://www.bohemiancoding.com/sketch -->
    <title>icons/alert</title>
    <desc>Created with Sketch.</desc>
    <defs>
        <polygon id="path-1" points="200 87 150 173.60254 50 173.60254 0 87 50 0.397459622 150 0.397459622"></polygon>
        <filter x="-50%" y="-50%" width="200%" height="200%" filterUnits="objectBoundingBox" id="filter-3">
            <feOffset dx="1.5" dy="2" in="SourceAlpha" result="shadowOffsetOuter1"></feOffset>
            <feGaussianBlur stdDeviation="5" in="shadowOffsetOuter1" result="shadowBlurOuter1"></feGaussianBlur>
            <feColorMatrix values="0 0 0 0 0   0 0 0 0 0   0 0 0 0 0  0 0 0 0.292742301 0" type="matrix" in="shadowBlurOuter1"></feColorMatrix>
        </filter>
        <linearGradient x1="0%" y1="50%" x2="85.5383539%" y2="50%" id="linearGradient-4">
            <stop stop-color="#ED1400" offset="0%"></stop>
            <stop stop-color="#F99D3C" offset="100%"></stop>
        </linearGradient>
        <polygon id="path-5" points="200 87 150 173.60254 50 173.60254 0 87 50 0.397459622 150 0.397459622"></polygon>
    </defs>
    <g id="Symbols" stroke="none" stroke-width="1" fill="none" fill-rule="evenodd">
        <g id="icons/alert">
            <g transform="translate(0.000000, 13.000000)">
                <mask id="mask-2" fill="white">
                    <use xlink:href="#path-1"></use>
                </mask>
                <g id="Polygon" fill-opacity="1" fill="black">
                    <use filter="url(#filter-3)" xlink:href="#path-1"></use>
                </g>
                <mask id="mask-6" fill="white">
                    <use xlink:href="#path-5"></use>
                </mask>
                <use id="Polygon" fill="url(#linearGradient-4)" xlink:href="#path-5"></use>
                <g id="bell" mask="url(#mask-6)">
                    <g transform="translate(48.000000, 25.000000)" id="Layer_1">
                        <g>
                            <path d="M52.514214,94.0863366 C58.4735371,94.0863366 63.3493886,98.9716594 63.3493886,104.942558 C63.3493886,110.913457 58.4735371,115.79878 52.514214,115.79878 C46.5548908,115.79878 41.6790393,110.913228 41.6790393,104.942558 C41.6790393,98.9718891 46.5548908,94.0863366 52.514214,94.0863366 L52.514214,94.0863366 Z" id="Shape" fill="#D4B25A"></path>
                            <path d="M52.514214,0 C48.5414083,0 45.2907642,3.25672871 45.2907642,7.23748119 C45.2907642,11.2182337 48.541179,14.4749624 52.514214,14.4749624 C56.4872489,14.4749624 59.7376638,11.2182337 59.7376638,7.23748119 C59.7376638,3.25672871 56.4870197,0 52.514214,0 L52.514214,0 Z M52.514214,10.8562218 C50.5276965,10.8562218 48.9024891,9.22785743 48.9024891,7.23748119 C48.9024891,5.24710495 50.5276965,3.61874059 52.514214,3.61874059 C54.5007314,3.61874059 56.1259389,5.24710495 56.1259389,7.23748119 C56.1259389,9.22785743 54.5005022,10.8562218 52.514214,10.8562218 L52.514214,10.8562218 Z" id="Shape" fill="#E8C15B"></path>
                            <path d="M92.2427293,79.611604 L92.2427293,48.4907564 C92.2427293,26.6880396 74.4550873,9.04685149 52.514214,9.04685149 C30.5733406,9.04685149 12.7856987,26.6880396 12.7856987,48.4907564 L12.7856987,79.611604 C5.83323144,79.611604 0.14489083,85.3109941 0.14489083,92.2769663 C0.14489083,99.2429386 5.83323144,104.942329 12.7856987,104.942329 L92.2429585,104.942329 C99.1954258,104.942329 104.883766,99.2429386 104.883766,92.2769663 C104.883766,85.3109941 99.1951965,79.611604 92.2427293,79.611604 L92.2427293,79.611604 Z" id="Shape" fill="#EFC75E"></path>
                            <path d="M52.514214,79.611604 L52.514214,9.04685149 C30.5731114,9.04685149 12.7856987,26.6880396 12.7856987,48.4907564 L12.7856987,79.611604 L52.514214,79.611604 L52.514214,79.611604 L52.514214,79.611604 Z" id="Shape" fill="#E1BB58"></path>
                            <path d="M12.7854694,79.611604 C5.83300218,79.611604 0.144661572,85.3109941 0.144661572,92.2769663 C0.144661572,99.2429386 5.83300218,104.942329 12.7854694,104.942329 L92.2427293,104.942329 C99.1951965,104.942329 104.883537,99.2429386 104.883537,92.2769663 C104.883537,85.3109941 99.1951965,79.611604 92.2427293,79.611604 L12.7854694,79.611604 L12.7854694,79.611604 Z" id="Shape" fill="#E8C15B"></path>
                        </g>
                    </g>
                </g>
            </g>
        </g>
    </g>
</svg>